# xmcd
#
# Track frame offsets:
#	150
#	21081
#	45479
#	66389
#	92249
#	117762
#	136730
#	157334
#	182084
#	202287
#	220756
#	240512
#	257976
#	276164
#	298898
#	320092
#	337988
#
# Disc length: 4737 seconds
#
# Revision: 10
# Processed by: cddbd v1.5.2PL0 Copyright (c) Steve Scherf et al.
# Submitted via: EasyCDDAExtractor 2010.4.0.0
#
DISCID=0f127f11
DTITLE=Kiroro - キロロのいちばんイイ歌あつめました
DYEAR=2006
DGENRE=J-POP
TTITLE0=Best Friend
TTITLE1=未来へ
TTITLE2=長い間
TTITLE3=冬のうた
TTITLE4=好きな人
TTITLE5=生きてこそ
TTITLE6=もう少し
TTITLE7=青のじゅもん 
TTITLE8=ひまわり
TTITLE9=最後のKiss
TTITLE10=３人の写真 
TTITLE11=逢いたい 
TTITLE12=ひとつぶの涙
TTITLE13=愛さない 
TTITLE14=帰る場所 
TTITLE15=僕らのメッセージ 
TTITLE16=Best Friend -UKULE MIX-
EXTD=YEAR: 2006
EXTT0=
EXTT1=
EXTT2=
EXTT3=
EXTT4=
EXTT5=
EXTT6=
EXTT7=
EXTT8=
EXTT9=
EXTT10=
EXTT11=
EXTT12=
EXTT13=
EXTT14=
EXTT15=
EXTT16=
PLAYORDER=
